HIERARCHY
ROOT Pelvis
{
	OFFSET 0.000000 0.000000 0.000000
	CHANNELS 6 Xposition Yposition Zposition Xrotation Yrotation Zrotation
	JOINT LeftUpLeg_virtual
	{
		OFFSET 0.000000 0.000000 0.000000
		CHANNELS 3 Xrotation Yrotation Zrotation
		JOINT LeftUpLeg
		{
			OFFSET 18.735201 -5.666702 -4.541200
			CHANNELS 3 Xrotation Yrotation Zrotation
			JOINT LeftLeg
			{
				OFFSET -0.021200 -31.938179 0.493100
				CHANNELS 3 Xrotation Yrotation Zrotation
				JOINT LeftFoot
				{
					OFFSET 0.021200 -31.938179 -4.336299
					CHANNELS 3 Xrotation Yrotation Zrotation
					JOINT LeftToeBase
					{
						OFFSET 0.943001 -26.722000 15.023500
						CHANNELS 3 Xrotation Yrotation Zrotation
						End Site
						{
							OFFSET 0 0 0
						}
					}
				}
			}
		}
	}
	JOINT RightUpLeg_virtual
	{
		OFFSET 0.000000 0.000000 0.000000
		CHANNELS 3 Xrotation Yrotation Zrotation
		JOINT RightUpLeg
		{
			OFFSET -18.735201 -5.666702 -4.541200
			CHANNELS 3 Xrotation Yrotation Zrotation
			JOINT RightLeg
			{
				OFFSET 0.018946 -31.938133 0.493100
				CHANNELS 3 Xrotation Yrotation Zrotation
				JOINT RightFoot
				{
					OFFSET -0.018946 -31.938126 -4.336299
					CHANNELS 3 Xrotation Yrotation Zrotation
					JOINT RightToeBase
					{
						OFFSET -0.943001 -26.722004 15.023500
						CHANNELS 3 Xrotation Yrotation Zrotation
						End Site
						{
							OFFSET 0 0 0
						}
					}
				}
			}
		}
	}
	JOINT Hips_virtual
	{
		OFFSET 0.000000 0.000000 0.000000
		CHANNELS 3 Xrotation Yrotation Zrotation
		JOINT Hips
		{
			OFFSET -0.000000 -0.000000 -0.000000
			CHANNELS 3 Xrotation Yrotation Zrotation
			JOINT Spine
			{
				OFFSET 0.000000 10.199997 -0.299500
				CHANNELS 3 Xrotation Yrotation Zrotation
				JOINT Spine1
				{
					OFFSET 0.000000 11.900002 -1.516600
					CHANNELS 3 Xrotation Yrotation Zrotation
					JOINT Spine2
					{
						OFFSET 0.000000 13.600006 -2.842500
						CHANNELS 3 Xrotation Yrotation Zrotation
						JOINT Neck_virtual
						{
							OFFSET 0.000000 0.000000 0.000000
							CHANNELS 3 Xrotation Yrotation Zrotation
							JOINT Neck
							{
								OFFSET 0.000000 9.624100 -2.890100
								CHANNELS 3 Xrotation Yrotation Zrotation
								JOINT Head
								{
									OFFSET 0.000000 14.068802 -1.351900
									CHANNELS 3 Xrotation Yrotation Zrotation
									End Site
									{
										OFFSET 0 0 0
									}
								}
							}
						}
						JOINT LeftShoulder_virtual
						{
							OFFSET 0.000000 0.000000 0.000000
							CHANNELS 3 Xrotation Yrotation Zrotation
							JOINT LeftShoulder
							{
								OFFSET 15.263000 10.923401 -0.547700
								CHANNELS 3 Xrotation Yrotation Zrotation
								JOINT LeftArm
								{
									OFFSET 25.438599 -2.830597 -13.032500
									CHANNELS 3 Xrotation Yrotation Zrotation
									JOINT LeftForeArm
									{
										OFFSET 29.960503 0.000000 0.000000
										CHANNELS 3 Xrotation Yrotation Zrotation
										JOINT LeftHand
										{
											OFFSET 27.849251 0.000000 0.000000
											CHANNELS 3 Xrotation Yrotation Zrotation
											End Site
											{
												OFFSET 0 0 0
											}
										}
									}
								}
							}
						}
						JOINT RightShoulder_virtual
						{
							OFFSET 0.000000 0.000000 0.000000
							CHANNELS 3 Xrotation Yrotation Zrotation
							JOINT RightShoulder
							{
								OFFSET -15.263000 10.923401 -0.547700
								CHANNELS 3 Xrotation Yrotation Zrotation
								JOINT RightArm
								{
									OFFSET -25.438599 -2.830597 -13.032500
									CHANNELS 3 Xrotation Yrotation Zrotation
									JOINT RightForeArm
									{
										OFFSET -29.960503 0.000000 0.000000
										CHANNELS 3 Xrotation Yrotation Zrotation
										JOINT RightHand
										{
											OFFSET -27.849251 0.000000 0.000000
											CHANNELS 3 Xrotation Yrotation Zrotation
											End Site
											{
												OFFSET 0 0 0
											}
										}
									}
								}
							}
						}
					}
				}
			}
		}
	}
}
MOTION
Frames: 9
Frame Time: 0.03333333
-23.015858 78.858658 -7.692036 0.000000 0.000000 0.000000 35.987030 4.132628 -4.023782 -60.664251 -24.120955 28.703276 36.186568 7.634614 -3.633501 3.040659 8.287435 -32.525648 0.000000 0.000000 0.000000 35.987030 4.132628 -4.023782 -66.919646 2.958710 -22.206547 56.836873 -3.580571 -0.676618 -19.620810 -5.866720 23.354809 0.000000 0.000000 0.000000 35.987030 4.132628 -4.023782 0.000002 0.000000 0.000000 11.163861 2.019195 0.891280 9.606817 1.909023 0.899772 0.000000 0.000000 0.000000 9.603348 2.011869 0.811203 0.129797 -0.854768 -0.412965 0.000000 0.000000 0.000000 9.603348 2.011869 0.811203 1.414462 -22.723534 -8.784363 11.762080 -10.125568 -53.585378 0.000026 -69.152237 -0.000008 0.000000 0.000000 0.000000 9.603348 2.011869 0.811203 3.076673 26.719377 7.630342 -0.858347 44.777897 17.984942 0.000003 15.067928 0.000007 0.000000 0.000000 0.000000 
-22.197609 77.818520 -7.897572 0.000000 0.000000 0.000000 39.059663 4.129767 -3.707553 -67.528544 -22.381345 27.728580 40.002669 7.755123 -3.872522 1.830078 5.441438 -31.426216 0.000000 0.000000 0.000000 39.059663 4.129767 -3.707553 -71.066800 3.923284 -23.399579 58.335450 -2.901401 -1.198174 -19.778467 -6.144998 24.362508 0.000000 0.000000 0.000000 39.059663 4.129767 -3.707553 -0.000004 0.000000 0.000000 11.442869 2.272100 0.886484 9.969257 2.124028 1.135354 0.000000 0.000000 0.000000 9.956450 2.298936 1.031304 0.014117 -0.967779 -0.523843 0.000000 0.000000 0.000000 9.956450 2.298936 1.031304 1.450523 -23.720940 -8.828588 11.826655 -9.065751 -52.805596 0.000036 -71.719889 0.000023 0.000000 0.000000 0.000000 9.956450 2.298936 1.031304 3.294674 27.536635 7.886915 -5.270288 43.242898 15.996358 -0.000000 15.853533 0.000007 0.000000 0.000000 0.000000 
-21.198307 76.768898 -8.000465 0.000000 0.000000 0.000000 42.344495 4.786457 -3.118776 -74.642513 -19.632127 26.056613 42.977664 7.982909 -3.610949 0.986329 2.127065 -30.053116 0.000000 0.000000 0.000000 42.344495 4.786457 -3.118776 -75.177310 5.163995 -25.705280 60.115930 -1.912686 -1.380908 -20.247642 -6.504766 25.383283 0.000000 0.000000 0.000000 42.344495 4.786457 -3.118776 0.000000 0.000000 0.000000 11.542961 2.397809 0.916867 10.145549 2.207578 1.318638 0.000000 0.000000 0.000000 10.126050 2.429381 1.208036 -0.048107 -1.072702 -0.675531 0.000000 0.000000 0.000000 10.126050 2.429381 1.208036 1.497498 -25.154972 -8.949472 13.817577 -10.051096 -52.570409 -0.000003 -73.607023 0.000005 0.000000 0.000000 0.000000 10.126050 2.429381 1.208036 3.280516 27.664711 7.784448 -9.619641 42.447894 14.900327 0.000002 16.326073 -0.000002 0.000000 0.000000 0.000000 
-20.168751 75.607033 -8.040371 0.000000 0.000000 0.000000 45.347392 5.553716 -2.404136 -80.364006 -18.606841 24.337475 46.258272 7.128011 -4.202387 -0.099067 1.759615 -28.979594 0.000000 0.000000 0.000000 45.347392 5.553716 -2.404136 -78.581545 7.655605 -28.582849 62.288429 -0.911013 -0.148894 -20.950333 -6.873546 26.123474 0.000000 0.000000 0.000000 45.347392 5.553716 -2.404136 0.000000 0.000000 0.000000 11.719777 2.494800 0.717999 10.419606 2.265464 1.337531 0.000000 0.000000 0.000000 10.390040 2.546631 1.219551 -0.243876 -1.200880 -0.716706 0.000000 0.000000 0.000000 10.390040 2.546631 1.219551 1.615767 -25.353608 -7.828263 14.967029 -11.945083 -53.301119 0.000041 -74.787757 0.000044 0.000000 0.000000 0.000000 10.390040 2.546631 1.219551 3.298614 27.605140 7.865046 -13.087429 42.442293 12.745400 -0.000009 16.666205 0.000016 0.000000 0.000000 0.000000 
-19.274002 74.171837 -7.934464 0.000000 0.000000 0.000000 47.967247 6.372101 -1.672160 -84.946646 -18.951890 23.054890 50.077093 6.491720 -5.770974 -1.948218 2.191480 -28.213502 0.000000 0.000000 0.000000 47.967247 6.372101 -1.672160 -82.197194 9.644224 -30.810782 65.271815 0.189686 -0.540509 -22.140912 -7.517211 27.363357 0.000000 0.000000 0.000000 47.967247 6.372101 -1.672160 -0.000003 -0.000000 0.000001 11.926648 2.686290 0.397043 10.795022 2.436691 1.061353 0.000000 0.000000 0.000000 10.760790 2.723267 0.941220 -0.506137 -1.350473 -0.684610 0.000000 0.000000 0.000000 10.760790 2.723267 0.941220 1.700070 -25.094738 -6.831343 16.047316 -13.664761 -53.668635 -0.000021 -75.388814 -0.000010 0.000000 0.000000 0.000000 10.760790 2.723267 0.941220 3.258680 27.386381 7.855297 -15.066795 42.716061 9.793282 0.000010 17.097154 0.000015 0.000000 0.000000 0.000000 
-18.361370 72.540314 -7.574978 0.000000 0.000000 0.000000 50.084459 7.530590 -0.831655 -89.799133 -17.340226 21.533860 54.099244 4.406498 -6.025311 -4.259637 2.711030 -27.375963 0.000000 0.000000 0.000000 50.084459 7.530590 -0.831655 -84.927918 12.282233 -33.130601 68.953895 1.072259 -1.075903 -23.943208 -8.474077 28.986097 0.000000 0.000000 0.000000 50.084459 7.530590 -0.831655 -0.000001 0.000000 -0.000001 12.194687 2.873319 0.204966 11.358266 2.601990 0.991495 0.000000 0.000000 0.000000 11.314923 2.925647 0.871748 -0.854416 -1.500474 -0.742866 0.000000 0.000000 0.000000 11.314923 2.925647 0.871748 1.775715 -25.335047 -6.187622 16.636065 -14.716449 -53.846435 0.000008 -75.508882 -0.000005 0.000000 0.000000 0.000000 11.314923 2.925647 0.871748 3.167533 27.281652 7.638712 -15.931012 42.588446 6.111243 -0.000007 17.599203 -0.000017 0.000000 0.000000 0.000000 
-17.404850 71.002457 -6.970833 0.000000 0.000000 0.000000 51.669766 8.867092 -0.252173 -93.618691 -16.361049 20.103972 58.081886 2.901513 -6.555886 -6.551307 3.194258 -26.623196 0.000000 0.000000 0.000000 51.669766 8.867092 -0.252173 -85.927031 15.030550 -35.706552 72.190708 1.620442 -1.060600 -25.868469 -9.636906 30.756577 0.000000 0.000000 0.000000 51.669766 8.867092 -0.252173 0.000000 0.000000 0.000000 12.608710 3.142867 0.307764 12.394619 2.849111 1.471125 0.000000 0.000000 0.000000 12.325642 3.302712 1.353530 -1.293387 -1.673612 -0.958127 0.000000 0.000000 0.000000 12.325642 3.302712 1.353530 1.873085 -25.315376 -5.181180 15.463632 -16.522571 -54.587862 -0.000033 -75.404284 -0.000034 0.000000 0.000000 0.000000 12.325642 3.302712 1.353530 3.211850 27.754909 7.546148 -17.019967 41.511793 1.267107 -0.000009 18.626959 -0.000008 0.000000 0.000000 0.000000 
-16.650074 69.298309 -6.310169 0.000000 0.000000 0.000000 53.162303 9.775514 0.136245 -97.610001 -15.326135 19.301860 62.457941 0.867537 -6.453361 -8.804746 3.686859 -26.186921 0.000000 0.000000 0.000000 53.162303 9.775514 0.136245 -85.746926 19.515732 -37.425581 76.110622 0.963029 0.575257 -28.217716 -10.760365 31.919960 0.000000 0.000000 0.000000 53.162303 9.775514 0.136245 0.000000 0.000001 0.000000 12.967089 3.574268 0.402048 13.352476 3.275931 1.759579 0.000000 0.000000 0.000000 13.259800 3.799962 1.654126 -1.781791 -1.818970 -1.218898 0.000000 0.000000 0.000000 13.259800 3.799962 1.654126 1.885922 -25.983312 -5.459216 15.087902 -16.748498 -53.802213 0.000015 -75.561959 0.000018 0.000000 0.000000 0.000000 13.259800 3.799962 1.654126 3.311518 28.619623 7.422865 -18.619365 40.137176 -3.342484 0.000009 20.155777 -0.000018 0.000000 0.000000 0.000000 
-16.125078 67.467453 -5.596909 0.000000 0.000000 0.000000 54.316680 10.575286 0.605876 -101.158524 -14.212699 18.618281 66.909291 -0.883234 -5.600981 -11.016872 4.258566 -26.317897 0.000000 0.000000 0.000000 54.316680 10.575286 0.605876 -87.044436 22.442890 -38.161670 81.015497 0.506332 0.089797 -30.937393 -11.692352 32.375138 0.000000 0.000000 0.000000 54.316680 10.575286 0.605876 -0.000001 0.000000 -0.000001 13.325784 3.957890 0.315341 14.206047 3.665919 1.751203 0.000000 0.000000 0.000000 14.094689 4.225063 1.664620 -2.146053 -1.956338 -1.285080 0.000000 0.000000 0.000000 14.094689 4.225063 1.664620 1.966793 -25.649915 -4.446009 14.680416 -18.328842 -54.263483 -0.000018 -76.269376 -0.000020 0.000000 0.000000 0.000000 14.094689 4.225063 1.664620 3.517407 29.834789 7.394062 -20.890870 39.221159 -7.185245 -0.000016 20.019669 0.000022 0.000000 0.000000 0.000000 
